<?xml version="1.0" encoding="UTF-8" standalone="no"?><!DOCTYPE svg PUBLIC "-//W3C//DTD SVG 1.1//EN" "http://www.w3.org/Graphics/SVG/1.1/DTD/svg11.dtd"><svg width="100%" height="100%" viewBox="0 0 717 1242" version="1.1" xmlns="http://www.w3.org/2000/svg" xmlns:xlink="http://www.w3.org/1999/xlink" xml:space="preserve" xmlns:serif="http://www.serif.com/" style="fill-rule:evenodd;clip-rule:evenodd;stroke-linejoin:round;stroke-miterlimit:2;"><g id="logo"><g><path d="M526.382,1064.04c80.569,13.189 133.566,35.544 133.566,60.913c0,40.538 -135.352,73.4 -302.316,73.4c-166.965,0 -302.317,-32.862 -302.317,-73.4c0,-25.369 52.997,-47.724 133.566,-60.913c-111.884,14.616 -187.95,43.312 -187.95,76.317c0,47.832 159.699,86.606 356.701,86.606c197.001,0 356.7,-38.774 356.7,-86.606c0,-33.005 -76.066,-61.701 -187.95,-76.317Z" style="fill:url(#_Linear1);"/><path d="M459.482,1064.04c48.632,7.956 80.62,21.453 80.62,36.766c0,24.466 -81.698,44.299 -182.47,44.299c-100.773,-0 -182.471,-19.833 -182.471,-44.299c-0,-15.313 31.989,-28.81 80.62,-36.766c-67.534,8.823 -113.442,26.139 -113.442,46.063c-0,28.872 96.389,52.272 215.293,52.272c118.904,-0 215.293,-23.4 215.293,-52.272c-0,-19.924 -45.909,-37.24 -113.443,-46.063Z" style="fill:url(#_Linear2);"/><path d="M395.624,1064.04c18.144,2.973 30.077,8.007 30.077,13.714c0,9.132 -30.476,16.528 -68.069,16.528c-37.594,0 -68.07,-7.396 -68.07,-16.528c-0,-5.707 11.934,-10.741 30.077,-13.714c-25.198,3.293 -42.319,9.753 -42.319,17.184c-0,10.77 35.955,19.502 80.312,19.502c44.356,-0 80.311,-8.732 80.311,-19.502c0,-7.431 -17.127,-13.891 -42.319,-17.184Z" style="fill:url(#_Linear3);"/></g><path d="M541.392,443.966l-316.436,361.038c-25.266,-33.935 -43.152,-74.93 -50.006,-115.285c-9.914,-58.345 -3.379,-117.386 11.454,-175.006c9.754,-37.879 23.091,-75.147 37.696,-111.199c31.264,-77.162 68.652,-152.075 92.839,-231.747c15.815,-52.113 25.74,-107.142 24.062,-161.309c-0,0 -29.193,99.385 -42.022,125.907c-33.644,69.542 -50.675,112.575 -87.663,180.399c-45.544,83.514 -86.413,162.022 -106.063,255.278c-16.043,76.134 -24.729,158.637 -6.66,235.844c16.414,70.176 66.535,132.499 128.429,168.334c50.948,29.501 110.76,41.783 168.431,35.351c38.741,-4.326 76.511,-17.088 109.984,-38.752c73.52,-47.558 114.218,-129.189 123.812,-214.58c11.317,-100.778 -14.411,-207.023 -64.474,-294.669c-21.168,-37.056 -46.942,-71.448 -76.374,-102.335c17.413,23.81 38.529,56.94 52.991,82.731Zm0,0l-306.642,373.388c6.991,8.287 14.45,16.038 22.309,23.126c94.026,84.764 233.756,52.615 298.67,-50.988c40.789,-65.085 48.488,-147.303 32.348,-222.404c-8.914,-41.486 -26.807,-85.563 -46.685,-123.122Zm-61.084,256.916c0,17.315 -4.674,30.745 -14.017,40.287c-9.348,9.548 -21.402,14.319 -36.161,14.319c-14.759,0 -26.784,-4.771 -36.081,-14.319c-9.302,-9.542 -13.948,-22.972 -13.948,-40.287c-0,-16.334 4.549,-29.518 13.652,-39.551c9.103,-10.039 21.276,-15.056 36.526,-15.056c15.055,0 27.155,5.017 36.303,15.056c9.155,10.033 13.726,23.217 13.726,39.551Zm-24.94,-0c-0,-12.79 -2.118,-23.268 -6.347,-31.435c-4.229,-8.167 -10.478,-12.254 -18.742,-12.254c-8.464,0 -14.782,4.087 -18.965,12.254c-4.184,8.167 -6.273,18.645 -6.273,31.435c0,13.086 2.118,23.639 6.347,31.658c4.229,8.018 10.478,12.025 18.742,12.025c8.264,-0 14.537,-4.007 18.817,-12.025c4.28,-8.019 6.421,-18.572 6.421,-31.658Zm-89.729,-109.95c-0,17.316 -4.674,30.745 -14.023,40.288c-9.348,9.542 -21.396,14.319 -36.155,14.319c-14.759,0 -26.79,-4.777 -36.087,-14.319c-9.297,-9.543 -13.948,-22.972 -13.948,-40.288c-0,-16.334 4.554,-29.517 13.652,-39.556c9.103,-10.033 21.276,-15.05 36.526,-15.05c15.055,-0 27.16,5.017 36.309,15.05c9.149,10.039 13.726,23.222 13.726,39.556Zm-24.941,0c0,-12.789 -2.117,-23.268 -6.346,-31.435c-4.235,-8.167 -10.479,-12.253 -18.748,-12.253c-8.458,-0 -14.782,4.086 -18.96,12.253c-4.183,8.167 -6.272,18.646 -6.272,31.435c0,13.087 2.112,23.634 6.347,31.653c4.229,8.018 10.478,12.03 18.742,12.03c8.264,0 14.536,-4.012 18.817,-12.03c4.28,-8.019 6.42,-18.566 6.42,-31.653Z" style="fill:url(#_Linear4);"/></g><defs><linearGradient id="_Linear1" x1="0" y1="0" x2="1" y2="0" gradientUnits="userSpaceOnUse" gradientTransform="matrix(8.52598e-15,139.24,-139.24,8.52598e-15,357.632,1087.73)"><stop offset="0" style="stop-color:#ff00e3;stop-opacity:1"/><stop offset="1" style="stop-color:#f37273;stop-opacity:1"/></linearGradient><linearGradient id="_Linear2" x1="0" y1="0" x2="1" y2="0" gradientUnits="userSpaceOnUse" gradientTransform="matrix(8.52598e-15,139.24,-139.24,8.52598e-15,357.632,1087.73)"><stop offset="0" style="stop-color:#ff00e3;stop-opacity:1"/><stop offset="1" style="stop-color:#f37273;stop-opacity:1"/></linearGradient><linearGradient id="_Linear3" x1="0" y1="0" x2="1" y2="0" gradientUnits="userSpaceOnUse" gradientTransform="matrix(8.52598e-15,139.24,-139.24,8.52598e-15,357.632,1087.73)"><stop offset="0" style="stop-color:#ff00e3;stop-opacity:1"/><stop offset="1" style="stop-color:#f37273;stop-opacity:1"/></linearGradient><linearGradient id="_Linear4" x1="0" y1="0" x2="1" y2="0" gradientUnits="userSpaceOnUse" gradientTransform="matrix(3.33328e-14,544.367,-544.367,3.33328e-14,357.632,400.107)"><stop offset="0" style="stop-color:#f37273;stop-opacity:1"/><stop offset="1" style="stop-color:#ff00e3;stop-opacity:1"/></linearGradient></defs></svg>